<svg width="183" height="61" viewBox="0 0 183 61" fill="none" xmlns="http://www.w3.org/2000/svg">
<path d="M152.437 48.625C150.104 48.5833 147.979 48.1563 146.062 47.3438C144.146 46.5104 142.521 45.3646 141.187 43.9063C139.854 42.4479 138.864 40.7396 138.219 38.7813C137.594 36.8021 137.364 34.6458 137.531 32.3125L137.656 31.0938C137.906 28.6354 138.489 26.3438 139.406 24.2188C140.323 22.0729 141.552 20.1979 143.094 18.5938C144.635 16.9688 146.448 15.7083 148.531 14.8125C150.635 13.9167 152.989 13.5 155.594 13.5625C157.948 13.6042 159.979 14.0729 161.687 14.9688C163.417 15.8646 164.823 17.0833 165.906 18.625C166.989 20.1458 167.739 21.8958 168.156 23.875C168.594 25.8333 168.698 27.9167 168.469 30.125L167.875 34.4063H141L142.062 27.8125L158.625 27.8438L158.812 26.9375C158.958 25.9583 158.917 25.0729 158.687 24.2813C158.458 23.4896 158.031 22.8646 157.406 22.4063C156.781 21.9271 155.937 21.6667 154.875 21.625C153.583 21.6042 152.51 21.8854 151.656 22.4688C150.823 23.0521 150.146 23.8229 149.625 24.7813C149.125 25.7396 148.739 26.7813 148.469 27.9063C148.198 29.0104 148 30.0729 147.875 31.0938L147.75 32.2813C147.667 33.3021 147.698 34.2917 147.844 35.25C147.989 36.2083 148.281 37.0729 148.719 37.8438C149.177 38.6146 149.792 39.2396 150.562 39.7188C151.333 40.1771 152.302 40.4271 153.469 40.4688C155.031 40.5104 156.489 40.2188 157.844 39.5938C159.198 38.9688 160.417 38.1146 161.5 37.0313L165.781 42.7188C164.844 44.1354 163.635 45.2813 162.156 46.1563C160.677 47.0104 159.083 47.6354 157.375 48.0313C155.687 48.4479 154.042 48.6458 152.437 48.625Z" fill="#00261F"/>
<path d="M115.781 21.25L108.875 61H98.5938L106.719 14.1875H116.25L115.781 21.25ZM134.219 30.5L134.125 31.1563C133.896 33.1979 133.427 35.2604 132.719 37.3438C132.031 39.4271 131.083 41.3334 129.875 43.0625C128.688 44.7917 127.208 46.1771 125.438 47.2188C123.667 48.2396 121.583 48.7188 119.188 48.6563C117.083 48.5938 115.365 48.0104 114.031 46.9063C112.698 45.7813 111.656 44.3646 110.906 42.6563C110.177 40.9271 109.667 39.1042 109.375 37.1875C109.104 35.25 108.99 33.4479 109.031 31.7813L109.125 30.875C109.438 29.0417 109.958 27.1042 110.688 25.0625C111.417 23.0209 112.375 21.125 113.562 19.375C114.75 17.6042 116.177 16.1771 117.844 15.0938C119.51 13.9896 121.448 13.4688 123.656 13.5313C125.969 13.5938 127.865 14.1459 129.344 15.1875C130.823 16.2084 131.948 17.5521 132.719 19.2188C133.49 20.8646 133.979 22.6771 134.188 24.6563C134.396 26.6354 134.406 28.5834 134.219 30.5ZM123.875 31.125L123.938 30.4688C124 29.7188 124.052 28.8542 124.094 27.875C124.135 26.8959 124.073 25.9375 123.906 25C123.76 24.0625 123.417 23.2813 122.875 22.6563C122.354 22.0104 121.552 21.6667 120.469 21.625C119.198 21.5625 118.135 21.7604 117.281 22.2188C116.427 22.6771 115.729 23.3125 115.188 24.125C114.667 24.9375 114.26 25.8542 113.969 26.875C113.677 27.875 113.469 28.9063 113.344 29.9688L113.062 32.5313C112.917 33.7188 112.885 34.9271 112.969 36.1563C113.052 37.3646 113.406 38.3854 114.031 39.2188C114.677 40.0521 115.76 40.4896 117.281 40.5313C118.49 40.5521 119.49 40.2604 120.281 39.6563C121.094 39.0521 121.74 38.2604 122.219 37.2813C122.719 36.3021 123.094 35.2709 123.344 34.1875C123.594 33.0834 123.771 32.0625 123.875 31.125Z" fill="#00261F"/>
<path d="M100.406 14.1875L94.5625 48H84.25L90.125 14.1875H100.406ZM91.0312 5.65623C90.9896 4.03123 91.5312 2.73956 92.6562 1.78123C93.8021 0.822895 95.1458 0.333311 96.6875 0.312478C98.1667 0.291644 99.4792 0.729145 100.625 1.62498C101.771 2.49998 102.354 3.71873 102.375 5.28123C102.417 6.90623 101.865 8.19789 100.719 9.15623C99.5938 10.1146 98.2604 10.6041 96.7188 10.625C95.2396 10.6458 93.9271 10.2187 92.7812 9.34373C91.6562 8.4479 91.0729 7.21873 91.0312 5.65623Z" fill="#00261F"/>
<path d="M85.8125 0L77.5 48H67.1875L75.5 0H85.8125Z" fill="#00261F"/>
<path d="M49.5 48.625C47.1667 48.5833 45.0417 48.1563 43.125 47.3438C41.2084 46.5104 39.5834 45.3646 38.25 43.9063C36.9167 42.4479 35.9271 40.7396 35.2813 38.7813C34.6563 36.8021 34.4271 34.6458 34.5938 32.3125L34.7188 31.0938C34.9688 28.6354 35.5521 26.3438 36.4688 24.2188C37.3854 22.0729 38.6146 20.1979 40.1563 18.5938C41.6979 16.9688 43.5104 15.7083 45.5938 14.8125C47.6979 13.9167 50.0521 13.5 52.6563 13.5625C55.0104 13.6042 57.0417 14.0729 58.75 14.9688C60.4792 15.8646 61.8854 17.0833 62.9688 18.625C64.0521 20.1458 64.8021 21.8958 65.2188 23.875C65.6563 25.8333 65.7604 27.9167 65.5313 30.125L64.9375 34.4063H38.0625L39.125 27.8125L55.6875 27.8438L55.875 26.9375C56.0209 25.9583 55.9792 25.0729 55.75 24.2813C55.5209 23.4896 55.0938 22.8646 54.4688 22.4063C53.8438 21.9271 53 21.6667 51.9375 21.625C50.6459 21.6042 49.5729 21.8854 48.7188 22.4688C47.8854 23.0521 47.2084 23.8229 46.6875 24.7813C46.1875 25.7396 45.8021 26.7813 45.5313 27.9063C45.2604 29.0104 45.0625 30.0729 44.9375 31.0938L44.8125 32.2813C44.7292 33.3021 44.7604 34.2917 44.9063 35.25C45.0521 36.2083 45.3438 37.0729 45.7813 37.8438C46.2396 38.6146 46.8542 39.2396 47.625 39.7188C48.3959 40.1771 49.3646 40.4271 50.5313 40.4688C52.0938 40.5104 53.5521 40.2188 54.9063 39.5938C56.2604 38.9688 57.4792 38.1146 58.5625 37.0313L62.8438 42.7188C61.9063 44.1354 60.6979 45.2813 59.2188 46.1563C57.7396 47.0104 56.1459 47.6354 54.4375 48.0313C52.75 48.4479 51.1042 48.6458 49.5 48.625Z" fill="#00261F"/>
<path d="M18.5938 2.5L10.6875 48H0L7.875 2.5H18.5938ZM32.4688 21.4375L31 29.875H10.75L12.2188 21.4375H32.4688ZM37.4688 2.5L36 10.9688H14L15.5 2.5H37.4688Z" fill="#00261F"/>
<rect x="170.781" y="37" width="12" height="11" rx="5.5" fill="#00FFCC"/>
<rect x="170.781" y="37" width="12" height="11" rx="5.5" fill="#00FFCC"/>
</svg>
